<svg width="5" height="8" viewBox="0 0 5 8" fill="none" xmlns="http://www.w3.org/2000/svg">
<path d="M4.44414 3.78301L1.32905 0.667981C1.257 0.595876 1.16083 0.556152 1.05827 0.556152C0.955721 0.556152 0.859543 0.595876 0.787495 0.667981L0.55809 0.897328C0.408815 1.04677 0.408815 1.28967 0.55809 1.43888L3.17391 4.0547L0.555188 6.67342C0.48314 6.74552 0.443359 6.84165 0.443359 6.94414C0.443359 7.04675 0.48314 7.14287 0.555188 7.21503L0.784592 7.44432C0.856698 7.51643 0.952819 7.55615 1.05537 7.55615C1.15792 7.55615 1.2541 7.51643 1.32615 7.44432L4.44414 4.32645C4.51636 4.25411 4.55603 4.15754 4.5558 4.05487C4.55603 3.95181 4.51636 3.85529 4.44414 3.78301Z" fill="black"/>
</svg>
