<svg width="25" height="25" viewBox="0 0 25 25" fill="none" xmlns="http://www.w3.org/2000/svg">
<path d="M22.994 16.4096C21.4634 16.4096 19.9605 16.1702 18.5364 15.6996C17.8264 15.4575 17.018 15.6454 16.5548 16.1174L13.7438 18.2394C10.4838 16.4992 8.47572 14.4918 6.75931 11.2563L8.81888 8.51855C9.35397 7.98418 9.5459 7.20358 9.31595 6.47116C8.8433 5.03952 8.60319 3.53737 8.60319 2.00612C8.60326 0.899935 7.70332 0 6.5972 0H2.00599C0.899935 0 0 0.899935 0 2.00599C0 14.6851 10.315 25 22.994 25C24.1001 25 25.0001 24.1001 25.0001 22.9939V18.4156C25 17.3096 24.1001 16.4096 22.994 16.4096ZM23.6111 22.994C23.6111 23.3344 23.3344 23.6111 22.994 23.6111C11.0806 23.6111 1.38893 13.9194 1.38893 2.00605C1.38893 1.66562 1.66563 1.38893 2.00605 1.38893H6.59727C6.9377 1.38893 7.21439 1.66562 7.21439 2.00605C7.21439 3.68587 7.47819 5.33451 7.99427 6.89635C8.06615 7.12695 8.00781 7.36562 7.77454 7.60846L5.38737 10.77C5.22734 10.9822 5.20221 11.2664 5.32227 11.5031C7.27064 15.3327 9.63815 17.7002 13.4949 19.6764C13.7295 19.7991 14.0171 19.7734 14.23 19.6126L17.4642 17.1624C17.6276 16.999 17.8725 16.9407 18.0936 17.0159C19.6662 17.5354 21.3148 17.7986 22.994 17.7986C23.3344 17.7986 23.6111 18.0753 23.6111 18.4157V22.994Z" fill="#898989"/>
</svg>
