<svg width="21" height="23" viewBox="0 0 21 23" fill="none" xmlns="http://www.w3.org/2000/svg">
<path d="M10.5 12.6934C3.72901 12.6934 0 15.8965 0 21.713C0 22.1672 0.368179 22.5354 0.822449 22.5354H20.1776C20.6318 22.5354 21 22.1672 21 21.713C21 15.8968 17.271 12.6934 10.5 12.6934ZM1.67483 20.8905C1.99833 16.5417 4.96326 14.3383 10.5 14.3383C16.0368 14.3383 19.0018 16.5417 19.3255 20.8905H1.67483Z" fill="#898989"/>
<path d="M10.5 0C7.38974 0 5.0444 2.39252 5.0444 5.56502C5.0444 8.83043 7.49177 11.4867 10.5 11.4867C13.5082 11.4867 15.9556 8.83043 15.9556 5.56528C15.9556 2.39252 13.6103 0 10.5 0ZM10.5 9.84205C8.39864 9.84205 6.6893 7.92352 6.6893 5.56528C6.6893 3.29367 8.29199 1.6449 10.5 1.6449C12.6727 1.6449 14.3107 3.33011 14.3107 5.56528C14.3107 7.92352 12.6014 9.84205 10.5 9.84205Z" fill="#898989"/>
</svg>
