<svg width="18" height="23" viewBox="0 0 18 23" fill="none" xmlns="http://www.w3.org/2000/svg">
<path d="M16.3851 3.86835C14.6866 1.41014 11.9947 0 9.00026 0C6.00578 0 3.31392 1.41014 1.61542 3.86835C-0.0747345 6.31413 -0.464997 9.41055 0.569389 12.1462C0.846062 12.8933 1.28586 13.6191 1.87345 14.2992L8.40802 21.9748C8.55581 22.1485 8.77234 22.2486 9.00026 22.2486C9.22818 22.2486 9.44471 22.1485 9.5925 21.9748L16.1252 14.3013C16.7154 13.6173 17.1547 12.8922 17.429 12.1512C18.4655 9.41055 18.0753 6.31413 16.3851 3.86835ZM15.9723 11.6063C15.7607 12.1781 15.4153 12.7434 14.9462 13.2872C14.9449 13.2885 14.9436 13.2898 14.9426 13.2913L9.00026 20.2709L3.05432 13.2869C2.58549 12.7437 2.24008 12.1784 2.02641 11.6012C1.17097 9.33872 1.49562 6.77857 2.89511 4.75312C4.29898 2.7212 6.52437 1.55584 9.00026 1.55584C11.4761 1.55584 13.7012 2.72115 15.1052 4.75312C16.5049 6.77857 16.8298 9.33872 15.9723 11.6063Z" fill="white"/>
<path d="M9.00026 4.61572C6.59828 4.61572 4.64388 6.56986 4.64388 8.9721C4.64388 11.3743 6.59802 13.3285 9.00026 13.3285C11.4025 13.3285 13.3566 11.3743 13.3566 8.9721C13.3566 6.57012 11.4022 4.61572 9.00026 4.61572ZM9.00026 11.7726C7.45607 11.7726 6.19972 10.5163 6.19972 8.97206C6.19972 7.42787 7.45607 6.17152 9.00026 6.17152C10.5445 6.17152 11.8008 7.42787 11.8008 8.97206C11.8008 10.5163 10.5445 11.7726 9.00026 11.7726Z" fill="white"/>
</svg>
